<?xml version="1.0" encoding="UTF-8" standalone="no"?>
<!-- Creator: CorelDRAW 2020 (64 Bit) -->

<svg
   xml:space="preserve"
   width="124"
   height="112"
   version="1.1"
   style="clip-rule:evenodd;fill-rule:evenodd;image-rendering:optimizeQuality;shape-rendering:geometricPrecision;text-rendering:geometricPrecision"
   viewBox="0 0 3280.8333 2963.3333"
   id="svg899"
   xmlns="http://www.w3.org/2000/svg"
   xmlns:svg="http://www.w3.org/2000/svg">
 <defs></defs>
 <g
   id="Camada_x0020_1"
   transform="translate(-2136.3588,-2095.2485)">
  <metadata
   id="CorelCorpID_0Corel-Layer" />
  <path
   id="path1230"
   style="stroke-width:0.00419626;image-rendering:auto"
   class="fil0"
   transform="matrix(26.458333,0,0,26.458333,2136.3588,2095.2485)"
   d="M 60.894531,0 C 60.681615,-8.1198932e-4 59.817823,0.79939003 59.548828,0.86523438 59.253576,0.98692166 58.906518,0.83505798 58.521484,1.0234375 57.308259,1.6170132 54.849509,3.765682 53.123047,4.9921875 39.291632,14.534488 13.463947,40.231425 4.5507812,53.21875 c -1.1063611,1.569441 -3.0352941,3.780026 -3.56249995,4.896484 -0.16382972,0.34694 0.27754085,0.514672 0.17968755,0.8125 -0.042098,0.337545 -1.15811073,1.557468 -1.0429688,1.761719 0.62072814,1.824628 2.4015567,3.146893 4.6582031,3.712891 0.186878,0.02975 0.2482315,0.187982 0.4667969,0.208984 0.1211301,0.01164 0.1711879,-0.134172 0.2851562,-0.125 0.8517957,0.102256 1.5014184,0.578452 2.53125,0.28125 1.6510111,-0.476474 2.3023678,-1.220195 3.5136718,-2.341797 1.421411,-1.316019 2.067163,-2.356966 3.308594,-3.060547 0.04703,0.06778 0.04662,3.520741 0.08594,4.638672 l -0.0078,0.978516 c -0.04857,4.896805 -0.573932,24.96184 0.5625,28.128906 0.0711,0.385625 0.412587,0.596191 0.503906,0.970703 0.01228,0.04265 0.001,0.243411 0.01367,0.28711 0.85711,2.960992 2.352465,5.557491 4.240234,7.902339 1.204493,1.47853 2.521149,2.59307 4.013672,3.75196 0.547657,0.42991 0.895342,0.99905 1.490235,1.39453 0.777401,0.51681 1.412665,0.64086 2.085937,1.02148 1.039893,0.58044 1.87987,1.5467 2.955078,1.99414 0.260467,0.1084 2.355008,0.0373 2.78125,0.13282 1.945239,0.37704 3.908578,0.68517 7.511719,0.93554 0.804617,0.0559 6.744574,-0.10318 10.09375,-0.0976 15.729004,0.38104 30.334849,0.26247 37.044922,-0.35352 0.282638,-0.0151 2.020813,-0.007 2.160156,-0.0215 0.05581,-0.006 0.09706,-0.0601 0.152344,-0.0664 0.401491,-0.0536 2.941457,-0.0632 3.089844,-0.11719 1.839927,-0.6692 3.459898,-2.29589 5.228515,-3.50976 0.533952,-0.3612 0.948559,-0.22897 1.535159,-0.66992 0.39687,-0.29834 0.622,-0.71313 0.99219,-1.02735 1.17026,-1.01779 2.05192,-1.92016 3.02539,-3.13086 1.81777,-2.28802 3.33581,-4.832275 4.31835,-8.005857 0.0152,-0.04918 9.4e-4,-0.290068 0.0156,-0.337891 0.0479,-0.243357 0.30739,-0.416633 0.34375,-0.662109 1.7874,-4.842225 0.30342,-22.955557 0.71875,-31.111328 0.0154,-0.207246 0.0131,-1.773803 0.0293,-1.808594 1.65306,0.646265 2.79294,2.057355 4.38281,3.158203 0.1818,0.131827 0.55101,0.480344 0.65625,0.535157 0.0824,0.04291 0.28455,-0.04389 0.38477,-0.0078 0.50729,0.21294 0.72415,0.649159 1.41015,0.714844 1.22246,0.117007 1.99758,-0.441552 2.91602,-0.796875 0.1624,-0.05381 0.42833,0.057 0.55664,-0.0098 0.0746,-0.03882 0.0837,-0.141863 0.15625,-0.183593 1.7261,-0.917222 3.0367,-2.290101 3.44726,-4.083985 0.90901,-3.15631 -1.25063,-5.566871 -2.55468,-6.851562 L 73.884766,5.9960938 C 69.827136,1.8747823 67.872006,0.87971554 64.544922,0.4765625 64.152977,0.42273304 63.95049,0.28037686 63.53125,0.24804688 63.349897,0.23406211 63.357313,0.31211819 63.195312,0.30078125 62.343462,0.25568503 62.04989,0.0043885 60.894531,0 Z m 1.296875,12.59375 c 10.660067,10.906001 21.468015,21.56028 32.345703,32.248047 1.453006,1.401729 1.980457,1.962915 2.19336,2.783203 0.533078,2.121721 0.272689,35.974417 -0.25586,41.667969 -0.316952,2.824834 -1.103283,4.559458 -2.998047,6.742187 -2.655164,1.864501 -4.114697,2.612202 -5.863281,2.951172 -2.857941,0.438862 -38.200439,0.410721 -46.388672,0.03516 -1.986837,-0.07122 -3.878488,-0.159425 -5.185547,-0.566406 -0.570413,-0.18902 -1.05363,-0.536745 -1.591796,-0.818359 C 33.31735,97.062957 32.213819,96.25399 31.070312,95.115234 30.56241,94.52506 30.233286,93.893945 29.896484,93.242188 29.354647,92.097365 28.990112,90.28629 28.671875,88.302734 27.901574,84.121961 27.601083,80.315312 27.630859,67.261719 27.726866,60.131681 27.928951,52.503631 27.875,48.966797 c -0.01198,-2.182018 4.400941,-7.25808 9.705078,-12.785156 2.642165,-2.761458 5.866658,-5.918582 9.767578,-9.705079 5.866588,-5.528369 12.297496,-11.473447 14.84375,-13.882812 z m 0.919922,29.408203 c -3.363553,0.0064 -6.021131,2.418827 -6.564453,5.384766 -1.387011,7.572623 9.023315,10.391804 12.193359,4.615234 0.488735,-0.683202 0.72778,-1.055394 0.941407,-2.181641 0.07542,-0.397311 0.158781,-0.949538 0.09961,-1.392578 -0.253735,-1.903253 -0.09704,-0.65211 -0.486328,-1.21289 0.12878,-2.964851 -3.1178,-5.218749 -6.183594,-5.212891 z M 51.964844,52.21875 c -1.455697,-0.176213 -2.744517,0.532417 -5.972656,1.808594 -1.704042,0.673704 -7.53994,3.148384 -8.632813,3.248047 -0.891496,3.209658 -5.651112,8.632715 -5.039063,11.861328 0.640668,1.366446 2.335888,2.459668 4.103516,1.183593 0.705521,-0.509272 1.770628,-2.615472 2.324219,-3.609374 0.94217,-1.691347 1.227363,-2.433647 1.626953,-3.238282 0.240409,-0.357539 0.541074,-0.942169 0.771484,-1.207031 0.53429,-0.668263 1.468847,-1.099076 3.230469,-1.617187 0.06928,0.03242 0.177483,0.03474 0.193359,0.121093 -2.496367,5.782919 -6.374817,7.42639 -2.253906,12.041016 1.564275,1.864425 2.966703,3.330772 4.248047,5.347656 0.06489,0.198659 0.14071,0.421137 0.113281,0.568359 l -0.298828,0.423829 c -1.091781,3.827002 -4.522345,7.477772 -4.232422,11.726562 1.208191,1.000471 1.233618,1.684504 2.869141,1.568359 2.845814,-0.201962 3.991911,-4.420109 5.734375,-8.201171 l 2.511719,-6.121094 c 0.18421,-0.500565 0.245547,-0.510065 0.335937,-0.621094 0.07945,-0.04103 0.158476,0.09239 0.230469,0.144531 0.185257,0.455211 0.181212,0.792676 0.175781,1.105469 0.08171,0.436027 -0.166198,1.246182 -0.576172,2.175781 -0.246035,0.408664 -0.406502,0.638357 -0.705078,1.300782 -0.781863,1.734844 -1.457788,3.2631 -2.332031,5.080078 -1.428434,2.96903 -0.13013,4.714573 1.621094,4.908203 0.224931,0.05359 0.466935,0.0033 0.697265,-0.05469 1.129885,-0.170656 2.303114,-0.787906 3.087891,-2.535156 l 4.810547,-10.152344 c 0.172517,-0.50367 -0.228362,-1.023437 -0.300781,-1.541015 -0.0091,-0.110544 -0.05047,-0.25001 -0.07031,-0.359375 -0.437181,-1.894565 -1.735551,-3.791242 -3.072266,-5.240235 -0.852396,-0.923951 -0.928434,-0.751485 -1.523437,-2.050781 l 1.103516,-2.396484 c 0.113365,-0.133364 0.269637,-0.431001 0.341797,-0.460938 0.316637,0.263237 0.497942,0.690863 0.691406,1.183594 0.141132,0.28305 0.286051,0.421039 0.404297,0.861328 0.314925,1.665047 -0.15263,1.211724 1.232421,4.056641 l 1.53125,0.382812 c 0.420265,0.350578 3.132715,1.81637 4.25,2.152344 l 3.685547,0.783203 c 2.635367,-0.0645 3.783048,3.314027 3.035157,6.488281 -0.129975,0.728261 -0.670582,1.789941 -1.175782,2.71875 -0.93519,1.51361 -2.020173,3.230908 -2.570312,4.144532 -0.908077,1.508197 -1.151601,2.283465 1.279297,2.355468 4.454611,0.132091 3.684313,-4.553831 7.111328,-7.037109 l 0.597656,2.238281 c -0.0637,0.157109 -0.373414,0.430123 -0.525391,0.613282 -0.943942,0.68595 -3.840244,3.025397 -1.302734,3.80664 0.0086,0.0022 0.003,0.0095 0.01172,0.01172 0.0011,2.72e-4 0.01452,-2.71e-4 0.01563,0 0.284224,0.08375 0.243793,0.271748 0.689453,0.300781 l 12.685547,-0.230469 c 0.546984,-0.06159 1.126242,-0.147401 1.658203,-0.28125 1.604001,-0.403959 0.426576,0.01694 1.400391,-0.550781 1.943421,-1.132687 2.390258,-2.561236 2.564453,-4.71289 0.258319,-3.190617 -0.626388,-2.703813 -0.988281,-2.902344 -1.214162,0.762905 -0.748822,-0.222417 -0.898438,2.09375 -0.08871,1.373788 -0.07928,3.685129 -2.298828,4.037109 -0.0405,-0.05753 0.178884,-0.73394 0.271484,-1.130859 1.101082,-2.701009 2.368824,-5.837284 -0.507812,-10.414063 -2.148922,-3.418855 -7.069659,-6.354146 -8.511719,-6.46289 l -1.669922,-4.167969 -2.533203,-7.5 c -0.312553,-0.867857 -0.649107,-0.813207 -0.849609,-1.00586 -0.07967,-0.102079 -0.177682,-0.244574 -0.253907,-0.298828 -0.161543,-0.07754 -0.08507,-0.380044 -0.429687,-0.509765 -0.670122,0.472173 -0.642686,0.899829 -0.751953,1.28125 -0.274912,0.567331 -0.627269,0.630701 -1.148438,0.58789 l -1.582031,-0.330078 -0.185547,1.642578 c -0.23082,0.654577 -0.589023,1.304877 -1.113281,1.90625 -0.04756,0.06392 -0.256875,0.226444 -0.308594,0.34961 -0.376534,0.380246 -0.881695,0.643777 -1.34375,0.957031 -1.05823,0.532865 -2.060874,0.978821 -3.367187,1.599609 0.05791,4.416775 3.494619,4.526537 6.296875,4.572266 l 0.0039,2.556641 c -1.084415,-0.542453 -1.217449,-0.894675 -2.007813,-1.308594 -1.35174,-0.707679 -0.755249,-0.05117 -2.316406,-0.789063 -0.838805,-0.396564 -1.497595,-0.734924 -2.201172,-1.107421 -1.025358,-0.551333 -1.921523,-1.064918 -2.08789,-1.484376 -0.690716,-3.199109 -1.261131,-6.284154 -1.980469,-9.527343 -0.51416,-2.317716 -0.814372,-2.570348 -2.650391,-3.636719 -3.898161,-2.263867 -5.520865,-3.323787 -6.976562,-3.5 z" />
  
  
 </g>
</svg>
