<svg width="16" height="16" viewBox="0 0 16 16" fill="none" xmlns="http://www.w3.org/2000/svg">
<path d="M9.41337 2.66659L10.6334 3.99992H13.3334V11.9999H2.66671V3.99992H5.36671L6.58671 2.66659H9.41337ZM10 1.33325H6.00004L4.78004 2.66659H2.66671C1.93337 2.66659 1.33337 3.26659 1.33337 3.99992V11.9999C1.33337 12.7333 1.93337 13.3333 2.66671 13.3333H13.3334C14.0667 13.3333 14.6667 12.7333 14.6667 11.9999V3.99992C14.6667 3.26659 14.0667 2.66659 13.3334 2.66659H11.22L10 1.33325ZM8.00004 5.99992C9.10004 5.99992 10 6.89992 10 7.99992C10 9.09992 9.10004 9.99992 8.00004 9.99992C6.90004 9.99992 6.00004 9.09992 6.00004 7.99992C6.00004 6.89992 6.90004 5.99992 8.00004 5.99992ZM8.00004 4.66659C6.16004 4.66659 4.66671 6.15992 4.66671 7.99992C4.66671 9.83992 6.16004 11.3333 8.00004 11.3333C9.84004 11.3333 11.3334 9.83992 11.3334 7.99992C11.3334 6.15992 9.84004 4.66659 8.00004 4.66659Z" fill="white"/>
</svg>
