<svg width="19" height="19" viewBox="0 0 19 19" fill="none" xmlns="http://www.w3.org/2000/svg">
<path d="M9.49999 4.75008C12.5004 4.75008 15.1762 6.43633 16.4825 9.10425C15.1762 11.7722 12.5004 13.4584 9.49999 13.4584C6.49957 13.4584 3.82374 11.7722 2.51749 9.10425C3.82374 6.43633 6.49957 4.75008 9.49999 4.75008ZM9.49999 3.16675C5.54166 3.16675 2.16124 5.62883 0.791656 9.10425C2.16124 12.5797 5.54166 15.0417 9.49999 15.0417C13.4583 15.0417 16.8387 12.5797 18.2083 9.10425C16.8387 5.62883 13.4583 3.16675 9.49999 3.16675ZM9.49999 7.12508C10.5925 7.12508 11.4792 8.01175 11.4792 9.10425C11.4792 10.1967 10.5925 11.0834 9.49999 11.0834C8.40749 11.0834 7.52082 10.1967 7.52082 9.10425C7.52082 8.01175 8.40749 7.12508 9.49999 7.12508ZM9.49999 5.54175C7.53666 5.54175 5.93749 7.14091 5.93749 9.10425C5.93749 11.0676 7.53666 12.6667 9.49999 12.6667C11.4633 12.6667 13.0625 11.0676 13.0625 9.10425C13.0625 7.14091 11.4633 5.54175 9.49999 5.54175Z" fill="#AFAFAF"/>
</svg>
