<svg width="22" height="22" viewBox="0 0 22 22" fill="none" xmlns="http://www.w3.org/2000/svg">
<path d="M11 10.9999C9.99163 10.9999 9.16663 10.1749 9.16663 9.16659C9.16663 8.15825 9.99163 7.33325 11 7.33325C12.0083 7.33325 12.8333 8.15825 12.8333 9.16659C12.8333 10.1749 12.0083 10.9999 11 10.9999ZM16.5 9.34992C16.5 6.02242 14.0708 3.66659 11 3.66659C7.92913 3.66659 5.49996 6.02242 5.49996 9.34992C5.49996 11.4949 7.28746 14.3366 11 17.7283C14.7125 14.3366 16.5 11.4949 16.5 9.34992ZM11 1.83325C14.85 1.83325 18.3333 4.78492 18.3333 9.34992C18.3333 12.3933 15.8858 15.9958 11 20.1666C6.11413 15.9958 3.66663 12.3933 3.66663 9.34992C3.66663 4.78492 7.14996 1.83325 11 1.83325Z" fill="#AFAFAF"/>
</svg>
