<svg width="18" height="18" viewBox="0 0 18 18" fill="none" xmlns="http://www.w3.org/2000/svg">
<path d="M8.25 4.125H6V3H6.375C6.7875 3 7.125 2.6625 7.125 2.25C7.125 1.8375 6.7875 1.5 6.375 1.5H4.125C3.7125 1.5 3.375 1.8375 3.375 2.25C3.375 2.6625 3.7125 3 4.125 3H4.5V4.125H2.25C1.8375 4.125 1.5 4.4625 1.5 4.875C1.5 5.2875 1.8375 5.625 2.25 5.625V11.25C2.25 12.075 2.925 12.75 3.75 12.75H4.5V15.75L6 16.875V12.75H6.75C7.575 12.75 8.25 12.075 8.25 11.25V5.625C8.6625 5.625 9 5.2875 9 4.875C9 4.4625 8.6625 4.125 8.25 4.125ZM6.75 6.75H5.4375C5.13 6.75 4.875 7.005 4.875 7.3125C4.875 7.62 5.13 7.875 5.4375 7.875H6.75V9H5.4375C5.13 9 4.875 9.255 4.875 9.5625C4.875 9.87 5.13 10.125 5.4375 10.125H6.75V11.25H3.75V5.625H6.75V6.75ZM14.625 7.875V7.5C15.0375 7.5 15.375 7.1625 15.375 6.75C15.375 6.3375 15.0375 6 14.625 6H10.875C10.4625 6 10.125 6.3375 10.125 6.75C10.125 7.1625 10.4625 7.5 10.875 7.5V7.875C10.875 8.25 9.75 8.745 9.75 10.125V15C9.75 15.825 10.425 16.5 11.25 16.5H14.25C15.075 16.5 15.75 15.825 15.75 15V10.125C15.75 8.745 14.625 8.25 14.625 7.875ZM12.375 7.875V7.5H13.125V7.875C13.125 9.075 14.25 9.375 14.25 10.125V10.5H11.25C11.25 10.3425 11.25 10.2075 11.25 10.125C11.25 9.375 12.375 9.075 12.375 7.875ZM14.25 11.625V12.75H11.25C11.25 12.3675 11.25 11.985 11.25 11.625H14.25ZM11.25 15C11.25 15 11.25 14.5275 11.25 13.875H14.25V15H11.25Z" fill="#AFAFAF"/>
</svg>
